<?xml version="1.0" encoding="UTF-8" standalone="no"?>
<!DOCTYPE svg PUBLIC "-//W3C//DTD SVG 1.1//EN"
 "http://www.w3.org/Graphics/SVG/1.1/DTD/svg11.dtd">
<!-- Generated by graphviz version 5.0.1 (20220821.0811)
 -->
<!-- Pages: 1 -->
<svg width="662pt" height="102pt"
 viewBox="0.00 0.00 662.00 102.00" xmlns="http://www.w3.org/2000/svg" xmlns:xlink="http://www.w3.org/1999/xlink">
<g id="graph0" class="graph" transform="scale(1 1) rotate(0) translate(4 98)">
<polygon fill="white" stroke="none" points="-4,4 -4,-98 658,-98 658,4 -4,4"/>
<!-- x1 -->
<g id="node1" class="node">
<title>x1</title>
<polygon fill="#f1edb9" stroke="black" stroke-width="2" points="36,-36 0,-36 0,0 36,0 36,-36"/>
<text text-anchor="middle" x="18" y="-13" font-family="times" font-size="20.00">x1</text>
</g>
<!-- x2 -->
<g id="node2" class="node">
<title>x2</title>
<polygon fill="#f1edb9" stroke="black" stroke-width="2" points="36,-90 0,-90 0,-54 36,-54 36,-90"/>
<text text-anchor="middle" x="18" y="-67" font-family="times" font-size="20.00">x2</text>
</g>
<!-- k1 -->
<g id="node3" class="node">
<title>k1</title>
<polygon fill="#bbccf9" stroke="black" stroke-width="2" points="272,-90 236,-90 236,-54 272,-54 272,-90"/>
<text text-anchor="middle" x="254" y="-67" font-family="times" font-size="20.00">k1</text>
</g>
<!-- x2&#45;&gt;k1 -->
<g id="edge1" class="edge">
<title>x2&#45;&gt;k1</title>
<path fill="none" stroke="black" d="M36.21,-72C76.44,-72 176.92,-72 225.65,-72"/>
<polygon fill="gray" stroke="black" points="225.77,-75.5 235.77,-72 225.77,-68.5 225.77,-75.5"/>
<text text-anchor="middle" x="136" y="-78" font-family="times" font-size="20.00">sin(2.00 * x + &#45;2.30)</text>
</g>
<!-- P(detected) = Sigmoid(x + 0.11) -->
<g id="node4" class="node">
<title>P(detected) = Sigmoid(x + 0.11)</title>
<polygon fill="#cbe7c7" stroke="black" stroke-width="2" points="654,-90 380,-90 380,-54 654,-54 654,-90"/>
<text text-anchor="middle" x="517" y="-67" font-family="times" font-size="20.00">P(detected) = Sigmoid(x + 0.11)</text>
</g>
<!-- k1&#45;&gt;P(detected) = Sigmoid(x + 0.11) -->
<g id="edge2" class="edge">
<title>k1&#45;&gt;P(detected) = Sigmoid(x + 0.11)</title>
<path fill="none" stroke="black" d="M272.12,-72C293.03,-72 330.51,-72 369.91,-72"/>
<polygon fill="gray" stroke="black" points="369.96,-75.5 379.96,-72 369.96,-68.5 369.96,-75.5"/>
<text text-anchor="middle" x="326" y="-78" font-family="times" font-size="20.00">&#45;2.14 * x</text>
</g>
</g>
</svg>
