<?xml version="1.0" encoding="UTF-8" standalone="no"?>
<!DOCTYPE svg PUBLIC "-//W3C//DTD SVG 1.1//EN"
 "http://www.w3.org/Graphics/SVG/1.1/DTD/svg11.dtd">
<!-- Generated by graphviz version 5.0.1 (20220821.0811)
 -->
<!-- Pages: 1 -->
<svg width="697pt" height="98pt"
 viewBox="0.00 0.00 697.00 98.00" xmlns="http://www.w3.org/2000/svg" xmlns:xlink="http://www.w3.org/1999/xlink">
<g id="graph0" class="graph" transform="scale(1 1) rotate(0) translate(4 94)">
<polygon fill="white" stroke="none" points="-4,4 -4,-94 693,-94 693,4 -4,4"/>
<!-- x1 -->
<g id="node1" class="node">
<title>x1</title>
<polygon fill="#f1edb9" stroke="black" stroke-width="2" points="36,-90 0,-90 0,-54 36,-54 36,-90"/>
<text text-anchor="middle" x="18" y="-67" font-family="times" font-size="20.00">x1</text>
</g>
<!-- k1 -->
<g id="node3" class="node">
<title>k1</title>
<polygon fill="#bbccf9" stroke="black" stroke-width="2" points="307,-63 271,-63 271,-27 307,-27 307,-63"/>
<text text-anchor="middle" x="289" y="-40" font-family="times" font-size="20.00">k1</text>
</g>
<!-- x1&#45;&gt;k1 -->
<g id="edge1" class="edge">
<title>x1&#45;&gt;k1</title>
<path fill="none" stroke="black" d="M36.24,-70.27C81.79,-65.7 205.64,-53.27 260.83,-47.73"/>
<polygon fill="gray" stroke="black" points="261.31,-51.2 270.91,-46.72 260.61,-44.23 261.31,-51.2"/>
<text text-anchor="middle" x="153.5" y="-74" font-family="times" font-size="20.00">logistic(0.37 * x + &#45;0.69)</text>
</g>
<!-- x2 -->
<g id="node2" class="node">
<title>x2</title>
<polygon fill="#f1edb9" stroke="black" stroke-width="2" points="36,-36 0,-36 0,0 36,0 36,-36"/>
<text text-anchor="middle" x="18" y="-13" font-family="times" font-size="20.00">x2</text>
</g>
<!-- x2&#45;&gt;k1 -->
<g id="edge2" class="edge">
<title>x2&#45;&gt;k1</title>
<path fill="none" stroke="black" d="M36.25,-15.1C75.71,-9.13 175.16,2.02 253,-22 256.03,-22.93 259.04,-24.22 261.95,-25.7"/>
<polygon fill="gray" stroke="black" points="260.44,-28.87 270.82,-30.96 264.01,-22.85 260.44,-28.87"/>
<text text-anchor="middle" x="153.5" y="-28" font-family="times" font-size="20.00">sin(1.88 * x + 1.72)</text>
</g>
<!-- P(detected) = Sigmoid(x + &#45;0.94) -->
<g id="node4" class="node">
<title>P(detected) = Sigmoid(x + &#45;0.94)</title>
<polygon fill="#cbe7c7" stroke="black" stroke-width="2" points="689,-63 408,-63 408,-27 689,-27 689,-63"/>
<text text-anchor="middle" x="548.5" y="-40" font-family="times" font-size="20.00">P(detected) = Sigmoid(x + &#45;0.94)</text>
</g>
<!-- k1&#45;&gt;P(detected) = Sigmoid(x + &#45;0.94) -->
<g id="edge3" class="edge">
<title>k1&#45;&gt;P(detected) = Sigmoid(x + &#45;0.94)</title>
<path fill="none" stroke="black" d="M307.3,-45C326.93,-45 360.99,-45 397.4,-45"/>
<polygon fill="gray" stroke="black" points="397.72,-48.5 407.72,-45 397.72,-41.5 397.72,-48.5"/>
<text text-anchor="middle" x="357.5" y="-51" font-family="times" font-size="20.00">1.45 * x</text>
</g>
</g>
</svg>
